<svg width="226" height="75" viewBox="0 0 226 75" fill="none" xmlns="http://www.w3.org/2000/svg">
<g clip-path="url(#clip0_1175_31)">
<path d="M187.939 21.7103L180.269 37.1304C182.329 37.1304 184.219 37.0804 186.099 37.1304C186.809 37.1304 187.949 37.3403 188.099 37.7503C188.217 38.1389 188.249 38.5482 188.194 38.9503C188.138 39.3524 187.997 39.7379 187.779 40.0803C179.432 51.167 171.022 62.237 162.549 73.2903C162.039 73.9603 160.769 74.0403 159.849 74.4003C159.759 73.4003 159.289 72.3303 159.619 71.5503C162.249 65.2903 165.039 59.0904 167.769 52.8804C168.109 52.1004 168.439 51.3203 168.979 50.0503C165.699 50.7903 162.849 51.4803 159.979 52.0503C159.165 52.1114 158.346 52.0778 157.539 51.9503C157.57 51.1571 157.715 50.3724 157.969 49.6203C166.009 33.9003 174.072 18.2003 182.159 2.52033C182.229 2.38033 182.289 2.24033 182.369 2.11033C183.039 1.01033 183.489 -0.679655 185.249 0.280345C186.839 1.15034 185.909 2.46032 185.349 3.54032C178.736 16.3803 172.116 29.2203 165.489 42.0603C164.489 43.9103 163.619 45.7903 162.489 48.0603C165.219 47.5703 167.489 47.0603 169.789 46.7803C170.829 46.7155 171.872 46.7356 172.909 46.8403C172.891 47.9452 172.737 49.0435 172.449 50.1103C170.987 53.4855 169.698 56.9333 168.589 60.4403L183.589 40.2003C181.489 40.4503 180.129 40.6503 178.759 40.7703C177.389 40.8903 176.239 40.9003 174.589 40.9903C174.82 40.2531 175.091 39.5287 175.399 38.8203C178.989 31.8803 182.579 24.9503 186.239 18.0503C186.579 17.3903 187.419 16.4703 187.909 16.5303C188.323 16.6365 188.709 16.8297 189.041 17.097C189.374 17.3643 189.646 17.6995 189.839 18.0803C197.759 34.207 205.622 50.3503 213.429 66.5103C213.639 66.9303 213.829 67.3603 214.059 67.7703C214.659 68.8503 214.899 70.0503 213.499 70.4403C212.909 70.6003 211.679 69.7803 211.309 69.1003C209.489 65.7403 207.839 62.2803 206.169 58.8403C200.229 46.6203 194.299 34.3937 188.379 22.1603C188.244 21.9997 188.097 21.8493 187.939 21.7103Z" fill="#085C2F"/>
<path d="M39.069 15.12V28.65H41.909H76.859C77.4769 28.5466 78.1091 28.567 78.719 28.71C79.4956 29.1585 80.22 29.6918 80.879 30.3C80.139 30.83 79.429 31.39 78.649 31.86C78.429 32 78.039 31.86 77.729 31.86C64.729 31.86 51.729 31.76 38.799 31.86C36.459 31.86 35.659 31.22 35.799 28.86C35.989 24.86 35.799 20.86 35.799 16.86C35.799 15.38 35.239 14.86 33.679 15.37V33.81C34.509 33.87 35.339 33.99 36.159 33.99H77.439C77.749 33.99 78.059 33.99 78.379 33.99C79.559 34.05 81.049 34.05 80.809 35.68C80.719 36.29 79.289 37.13 78.469 37.13C63.149 37.22 47.829 37.18 32.469 37.21C30.989 37.21 30.369 36.71 30.379 35.21C30.4257 28.09 30.4257 20.9733 30.379 13.86C30.379 12.38 30.989 12 32.379 12C47.699 12 63.019 12 78.379 12C79.539 12 80.979 12 80.929 13.65C80.879 15.3 79.479 15.2 78.289 15.2H39.089L39.069 15.12Z" fill="#085C2F"/>
<path d="M127.72 6.57992C133.51 6.57992 139.29 6.57992 145.08 6.57992C146.4 6.57992 147.9 6.64993 147.68 8.33993C147.6 8.95993 145.98 9.78992 145.06 9.79992C134.06 9.90992 123.01 9.87991 111.99 9.88991C104.7 9.88991 99.5198 14.8899 99.4798 21.8899C99.4298 28.6699 104.58 33.7599 111.77 33.8899C117.32 33.9899 122.87 33.8899 128.42 33.8899C132.49 33.8862 136.401 35.4756 139.314 38.3181C142.228 41.1606 143.913 45.0306 144.01 49.0999C144.21 57.0999 137.14 64.6399 129.01 64.7499C117.6 64.8899 106.19 64.8299 94.7697 64.7499C93.8897 64.7499 92.3698 63.8199 92.2598 63.1299C91.9798 61.4599 93.5297 61.5499 94.7097 61.5499C105.96 61.5499 117.22 61.6199 128.48 61.5499C130.407 61.5678 132.311 61.1322 134.039 60.2783C135.767 59.4245 137.269 58.1762 138.426 56.6345C139.582 55.0927 140.36 53.3005 140.696 51.4028C141.032 49.5051 140.917 47.555 140.36 45.7099C139.611 43.2629 138.106 41.1159 136.062 39.5764C134.018 38.037 131.538 37.184 128.98 37.1399C123.19 37.1399 117.41 37.1999 111.63 37.1399C107.86 37.153 104.218 35.772 101.405 33.2624C98.5915 30.7527 96.8054 27.2916 96.3898 23.5446C95.9741 19.7976 96.9583 16.0293 99.1532 12.9641C101.348 9.89892 104.599 7.75335 108.28 6.93993C109.428 6.70776 110.598 6.60046 111.77 6.61992C117.08 6.56992 122.4 6.57992 127.72 6.57992Z" fill="#085C2F"/>
<path d="M28.4306 9.96007V66.7901C29.2406 66.7901 30.0705 66.9101 30.9005 66.9101H77.8005C78.1205 66.9101 78.4906 66.8001 78.7306 66.9101C79.5606 67.4001 80.3405 67.9701 81.1505 68.5101C80.3105 69.0001 79.4705 69.9201 78.6205 69.9301C61.5005 70.0001 44.3806 69.9301 27.2706 69.9901C25.4606 69.9901 25.0605 69.2801 25.0605 67.6101C25.1205 48.1367 25.1205 28.6667 25.0605 9.20006C25.0605 7.10006 25.7805 6.56006 27.7805 6.57006C44.4305 6.63006 61.0805 6.57006 77.7805 6.57006C78.4761 6.47776 79.1835 6.54269 79.8506 6.76006C80.1286 6.93148 80.3669 7.16016 80.5497 7.43087C80.7325 7.70157 80.8555 8.00811 80.9106 8.33007C80.8528 8.61562 80.7248 8.88227 80.5379 9.10579C80.3511 9.32931 80.1113 9.50263 79.8405 9.61006C79.003 9.78774 78.1443 9.845 77.2906 9.78008H30.3905C29.7205 9.83008 29.1606 9.91007 28.4306 9.96007Z" fill="#085C2F"/>
<path d="M112.721 70.0299H95.6009C94.9061 70.1305 94.1979 70.0862 93.5209 69.8999C92.8826 69.5715 92.4007 69.0032 92.1809 68.3199C92.1009 68.0299 92.9709 67.3199 93.5309 67.0799C94.2154 66.9195 94.9219 66.8755 95.6209 66.9499C106.621 66.9499 117.621 67.0299 128.671 66.8199C131.517 66.7988 134.316 66.0902 136.829 64.7545C139.342 63.4187 141.495 61.4953 143.105 59.1482C144.714 56.801 145.733 54.0996 146.073 51.274C146.414 48.4484 146.067 45.5823 145.061 42.9199C143.724 39.6014 141.423 36.7597 138.455 34.7615C135.487 32.7634 131.989 31.7005 128.411 31.7099C122.551 31.7099 116.681 31.7899 110.831 31.6099C108.547 31.4876 106.378 30.5687 104.702 29.0129C103.025 27.4571 101.947 25.3629 101.654 23.0945C101.362 20.826 101.874 18.5268 103.101 16.5967C104.328 14.6665 106.193 13.2275 108.371 12.5299C109.646 12.172 110.966 11.9969 112.291 12.0099C123.231 11.9299 134.171 11.8832 145.111 11.8699C145.809 11.8212 146.505 11.9813 147.111 12.3299C147.491 12.5999 147.821 13.7099 147.641 13.8799C147.062 14.5153 146.288 14.9408 145.441 15.0899C138.441 15.1699 131.531 15.1399 124.571 15.1399C120.351 15.1399 116.131 15.0899 111.911 15.1399C107.911 15.1399 104.911 17.9499 104.831 21.6999C104.761 25.6999 107.511 28.5799 111.731 28.6399C117.511 28.7099 123.291 28.6399 129.081 28.6399C140.241 28.6399 149.191 37.7799 149.321 49.2699C149.451 60.2699 140.491 69.7499 129.621 69.9999C123.981 70.1299 118.351 70.0299 112.721 70.0299Z" fill="#085C2F"/>
<path d="M127.55 1.33989H144.72C145.337 1.25006 145.966 1.30134 146.56 1.48988C146.848 1.64261 147.1 1.85564 147.298 2.11448C147.497 2.37333 147.637 2.67191 147.71 2.98988C147.71 3.44988 146.97 4.08988 146.43 4.29988C145.742 4.44281 145.036 4.46986 144.34 4.37989C133.39 4.37989 122.45 4.27989 111.5 4.37989C102.76 4.42989 95.6398 10.8299 94.2298 19.6299C93.6686 23.5765 94.5063 27.5951 96.5976 30.9888C98.689 34.3825 101.902 36.9372 105.68 38.2099C108.239 38.9003 110.88 39.2368 113.53 39.2099C118.45 39.3399 123.38 39.0999 128.3 39.2099C130.79 39.172 133.209 40.0424 135.105 41.6582C137.001 43.274 138.243 45.5248 138.6 47.9899C138.911 50.4222 138.312 52.8837 136.919 54.9013C135.525 56.9189 133.435 58.3501 131.05 58.9199C129.68 59.2377 128.275 59.3755 126.87 59.3299C116.316 59.4032 105.763 59.4499 95.2098 59.4699C94.6698 59.4699 93.9999 59.5899 93.6099 59.3199C93.0499 58.9499 92.3098 58.2499 92.3498 57.7399C92.3898 57.2299 93.1798 56.5799 93.7898 56.2999C94.3972 56.1618 95.0259 56.1448 95.6399 56.2499C106.347 56.2499 117.056 56.2499 127.77 56.2499C132.3 56.2499 135.53 53.2499 135.54 49.2499C135.55 45.2499 132.4 42.5099 127.84 42.4899C122.29 42.4899 116.74 42.4899 111.19 42.4899C105.745 42.4607 100.535 40.2697 96.7052 36.399C92.8757 32.5282 90.7407 27.2948 90.7698 21.8499C90.799 16.405 92.99 11.1947 96.8607 7.36518C100.731 3.53569 105.965 1.40071 111.41 1.42988C116.81 1.42988 122.2 1.42988 127.6 1.42988L127.55 1.33989Z" fill="#085C2F"/>
<path d="M191.209 4.07953C187.599 11.0295 184.209 17.5995 180.769 24.1595C179.439 26.7195 178.069 29.2695 176.709 31.8095C176.129 32.8895 175.399 34.0896 174.069 33.1296C173.629 32.8096 173.639 31.2595 173.989 30.5495C178.699 21.1195 183.459 11.7195 188.369 2.38953C188.799 1.56953 190.309 1.18955 191.369 0.879549C192.829 0.469549 193.619 1.43954 194.209 2.67954C198.083 10.6795 201.969 18.6795 205.869 26.6795C212.329 39.9395 218.799 53.1995 225.279 66.4595C225.419 66.7395 225.709 67.0595 225.659 67.2995C225.489 68.1795 225.199 69.0295 224.949 69.8895C224.229 69.4795 223.179 69.2595 222.849 68.6495C221.209 65.5495 219.769 62.3395 218.229 59.1795C209.669 41.6395 201.099 24.1029 192.519 6.56952C192.209 5.89952 191.819 5.22953 191.209 4.07953Z" fill="#085C2F"/>
<path d="M39.1604 42.4298V55.8798C40.3904 55.9598 41.5304 56.0998 42.6704 56.0998L77.3504 56.2198C78.1256 56.136 78.9094 56.1799 79.6704 56.3498C79.9657 56.4678 80.2286 56.6546 80.4373 56.8946C80.646 57.1346 80.7945 57.4209 80.8704 57.7298C80.8704 58.2198 80.2504 58.8998 79.7304 59.1698C79.1329 59.3588 78.5005 59.4101 77.8804 59.3198C64.7604 59.3198 51.6404 59.2698 38.5204 59.3198C36.3304 59.3198 35.7204 58.6598 35.7704 56.5298C35.9004 51.4598 35.8504 46.3798 35.7704 41.2998C35.7704 39.6898 36.2004 39.1298 37.8704 39.1398C51.3004 39.2398 64.7404 39.2398 78.1704 39.2898C79.3304 39.2898 80.8004 39.1098 80.8104 40.7898C80.8104 42.6398 79.2504 42.4098 78.0304 42.4098C66.077 42.4098 54.127 42.4098 42.1804 42.4098L39.1604 42.4298Z" fill="#085C2F"/>
<path d="M33.6199 39.6502V61.5102H77.6199C78.31 61.4019 79.0152 61.4394 79.6899 61.6202C80.2899 61.9002 81.0299 62.6202 81.0299 63.1802C81.0299 63.7402 80.2399 64.3402 79.6699 64.7302C79.3499 64.9502 78.7599 64.7902 78.2899 64.7902C63.2899 64.7902 48.2899 64.7102 33.2899 64.7902C30.9899 64.7902 30.4099 64.0902 30.4599 61.8802C30.5999 55.2402 30.5799 48.5902 30.4599 41.9502C30.4099 39.7902 31.0399 38.8702 33.6199 39.6502Z" fill="#085C2F"/>
<path d="M13.7208 35.4701C13.7208 46.0235 13.7208 56.5701 13.7208 67.1101C13.7208 67.5801 13.8908 68.1601 13.6708 68.4901C13.2608 69.1101 12.6708 69.8601 12.0508 70.0201C11.7008 70.1101 10.9408 69.2101 10.6108 68.6101C10.3708 68.1901 10.5408 67.5401 10.5408 67.0001V3.9501C10.4433 3.41263 10.4811 2.85933 10.6508 2.34012C10.9508 1.81012 11.5708 1.13012 12.0608 1.12012C12.3834 1.18044 12.6886 1.31118 12.9548 1.50305C13.221 1.69492 13.4416 1.94318 13.6008 2.2301C13.7954 2.81955 13.8468 3.44686 13.7508 4.06012C13.7308 14.5268 13.7208 24.9968 13.7208 35.4701Z" fill="#085C2F"/>
<path d="M5.27903 35.4505V4.29047C5.27903 3.82047 5.11903 3.29048 5.32903 2.90048C5.80088 2.22006 6.32585 1.57804 6.89902 0.980469C7.49141 1.57974 7.98128 2.27233 8.34904 3.03049C8.46952 3.95993 8.46952 4.90103 8.34904 5.83047C8.38904 26.2905 8.43236 46.7505 8.47902 67.2105C8.5704 67.7477 8.53618 68.2987 8.37903 68.8205C8.06903 69.3405 7.44903 69.9805 6.94903 69.9905C6.62798 69.9485 6.32193 69.8292 6.05717 69.6428C5.7924 69.4564 5.57686 69.2085 5.42904 68.9205C5.23298 68.167 5.17872 67.3837 5.26903 66.6105C5.26903 56.2238 5.26903 45.8371 5.26903 35.4505H5.27903Z" fill="#085C2F"/>
<path d="M191.16 9.17969C191.87 10.4397 192.53 11.4597 193.06 12.5497C201.933 30.703 210.8 48.863 219.66 67.0297C219.83 67.3797 220.18 67.7697 220.13 68.0797C219.946 68.8258 219.709 69.5577 219.42 70.2697C218.728 70.1523 218.065 69.901 217.47 69.5297C216.987 68.9319 216.612 68.2553 216.36 67.5297C207.913 50.1964 199.467 32.863 191.02 15.5297C190.843 15.0113 190.583 14.525 190.25 14.0897C188.22 12.1397 189.72 10.8597 191.16 9.17969Z" fill="#085C2F"/>
<path d="M0.040856 35.2401V4.52009C-0.0484805 3.82294 -0.0146418 3.11553 0.140847 2.43009C0.360847 1.88009 1.00084 1.16009 1.48084 1.14009C1.96084 1.12009 2.60085 1.79008 2.91085 2.32008C3.07541 2.84013 3.11649 3.39139 3.03085 3.93009C3.03085 25.1101 3.05419 46.2934 3.10085 67.4801C3.10085 68.6301 3.30085 70.0801 1.53085 70.0201C-0.239154 69.9601 0.0208517 68.5301 0.0208517 67.3701C0.0208517 56.6568 0.0208517 45.9468 0.0208517 35.2401H0.040856Z" fill="#085C2F"/>
<path d="M52.8008 4.3702H27.5008C26.4008 4.3702 25.1308 4.4902 25.0908 2.9002C25.0508 1.3102 26.2808 1.33019 27.4208 1.33019H78.0108C78.4808 1.33019 79.0108 1.1802 79.3908 1.4002C79.9708 1.7602 80.7708 2.32019 80.8108 2.86019C80.8508 3.40019 80.0508 4.02021 79.4708 4.31021C78.8686 4.47662 78.2375 4.51074 77.6208 4.41021H52.8008V4.3702Z" fill="#085C2F"/>
</g>
<defs>
<clipPath id="clip0_1175_31">
<rect width="225.69" height="74.4" fill="white"/>
</clipPath>
</defs>
</svg>
